<svg width="150" height="68" viewBox="0 0 150 68" fill="none" xmlns="http://www.w3.org/2000/svg">
<path d="M11.3585 48.4451H8.70588V55.8523H7.62267V48.4451H4.97583V47.5498H11.3585V48.4451Z" fill="white"/>
<path d="M22.1232 52.0147H18.5469V54.9569H22.6913V55.8523H17.4492V47.5498H22.6364V48.4451H18.5368V51.1193H22.1131L22.1232 52.0147Z" fill="white"/>
<path d="M31.8457 50.7323L33.8194 47.5558H35.1001L32.4928 51.6713L35.1613 55.8563H33.8685L31.8394 52.6183L29.7988 55.8563H28.5122L31.1865 51.6713L28.5734 47.5558H29.8484L31.8457 50.7323Z" fill="white"/>
<path d="M47.1239 48.4451H44.4713V55.8523H43.3876V48.4451H40.7407V47.5498H47.1239V48.4451Z" fill="white"/>
<path d="M66.4029 48.4451H63.7503V55.8523H62.6666V48.4451H60.0178V47.5498H66.4029V48.4451Z" fill="white"/>
<path d="M78.7974 51.9671C78.8139 52.6983 78.6746 53.4247 78.3888 54.0973C78.1495 54.6654 77.7477 55.1492 77.2343 55.487C76.7103 55.8131 76.1036 55.9792 75.4876 55.9655C74.8756 55.9808 74.2731 55.8124 73.7567 55.4818C73.2404 55.1512 72.8335 54.6733 72.5882 54.1092C72.2983 53.4597 72.1521 52.7545 72.1599 52.0425V51.4469C72.146 50.7204 72.2873 49.9994 72.5743 49.3326C72.8114 48.7593 73.2158 48.2716 73.7336 47.9336C74.2514 47.5956 74.8584 47.423 75.4755 47.4386C76.0925 47.4263 76.6998 47.5939 77.2242 47.921C77.7418 48.2567 78.1476 48.7408 78.3888 49.3108C78.6739 49.9836 78.8132 50.7098 78.7974 51.441V51.9671ZM77.7157 51.4311C77.7662 50.6309 77.5589 49.8357 77.124 49.1639C76.9347 48.9056 76.685 48.6981 76.3973 48.5596C76.1096 48.4211 75.7923 48.356 75.4736 48.3697C75.1592 48.3583 74.8467 48.4247 74.5639 48.5632C74.281 48.7017 74.0363 48.9079 73.8512 49.1639C73.4215 49.8077 73.2081 50.5729 73.2416 51.3477V51.9571C73.1954 52.7512 73.403 53.5395 73.8338 54.2065C74.0267 54.4574 74.2731 54.6613 74.5552 54.803C74.8373 54.9447 75.1477 55.0206 75.463 55.025C75.7783 55.0294 76.0902 54.9622 76.3761 54.8284C76.662 54.6946 76.9141 54.4976 77.1138 54.2521C77.5392 53.5952 77.7466 52.8195 77.706 52.0366L77.7157 51.4311Z" fill="white"/>
<path d="M95.9882 54.397L98.3469 47.5498H99.5308L96.4696 55.8523H95.5044L92.4495 47.5498H93.6334L95.9882 54.397Z" fill="white"/>
<path d="M106.772 55.8523H105.685V47.5498H106.772V55.8523Z" fill="white"/>
<path d="M113.743 55.8522V47.5498H116.073C116.738 47.5367 117.394 47.7018 117.975 48.0282C118.526 48.345 118.971 48.8189 119.254 49.3902C119.565 50.0203 119.721 50.7159 119.71 51.4191V51.9492C119.726 52.6617 119.571 53.3676 119.26 54.0079C118.976 54.5794 118.527 55.0518 117.973 55.3639C117.376 55.69 116.705 55.8568 116.025 55.8483L113.743 55.8522ZM114.831 48.4451V54.9569H115.976C116.34 54.9768 116.704 54.916 117.043 54.7788C117.381 54.6416 117.685 54.4313 117.934 54.1628C118.436 53.5285 118.685 52.7286 118.632 51.9194V51.435C118.681 50.6461 118.447 49.8656 117.973 49.2353C117.74 48.9703 117.451 48.7613 117.127 48.6239C116.802 48.4864 116.452 48.424 116.1 48.4411L114.831 48.4451Z" fill="white"/>
<path d="M131.128 52.0147H127.551V54.9569H131.706V55.8523H126.464V47.5498H131.651V48.4451H127.553V51.1193H131.132L131.128 52.0147Z" fill="white"/>
<path d="M144.286 51.967C144.303 52.6983 144.163 53.4246 143.878 54.0972C143.638 54.6659 143.236 55.1498 142.721 55.487C142.335 55.7382 141.9 55.9026 141.445 55.9689C140.99 56.0351 140.525 56.0017 140.084 55.8708C139.643 55.74 139.236 55.5148 138.889 55.2108C138.543 54.9067 138.266 54.531 138.077 54.1092C137.788 53.4594 137.642 52.7544 137.649 52.0425V51.4469C137.635 50.7204 137.776 49.9994 138.063 49.3326C138.3 48.7594 138.705 48.2719 139.222 47.9339C139.74 47.5959 140.347 47.4232 140.964 47.4386C141.581 47.4266 142.189 47.5941 142.713 47.921C143.231 48.2569 143.636 48.7409 143.878 49.3107C144.163 49.9836 144.302 50.7098 144.286 51.441V51.967ZM143.202 51.431C143.252 50.631 143.045 49.8361 142.611 49.1638C142.421 48.9056 142.172 48.6981 141.884 48.5596C141.596 48.4211 141.279 48.3559 140.96 48.3697C140.646 48.3581 140.333 48.4245 140.05 48.5629C139.766 48.7014 139.521 48.9077 139.336 49.1638C138.907 49.8079 138.693 50.573 138.727 51.3477V51.9571C138.68 52.7512 138.887 53.5394 139.318 54.2065C139.511 54.457 139.758 54.6606 140.04 54.8021C140.321 54.9436 140.631 55.0193 140.946 55.0237C141.261 55.0281 141.573 54.961 141.859 54.8274C142.145 54.6938 142.397 54.4972 142.597 54.2521C143.022 53.5952 143.23 52.8195 143.189 52.0365L143.202 51.431Z" fill="white"/>
<path d="M4.97561 13.7264V10.139C4.96998 10.0664 4.9804 9.99339 5.00549 9.92506C5.03057 9.85674 5.06993 9.79463 5.12113 9.74312C5.17234 9.69162 5.2339 9.65191 5.30183 9.62668C5.36976 9.60144 5.44262 9.59132 5.51481 9.59699H28.3187C28.3909 9.59132 28.4632 9.60144 28.5312 9.62668C28.5991 9.65191 28.6607 9.69162 28.7119 9.74312C28.7631 9.79463 28.8029 9.85674 28.828 9.92506C28.8531 9.99339 28.863 10.0664 28.8574 10.139V13.7264C28.863 13.799 28.8531 13.872 28.828 13.9403C28.8029 14.0086 28.7631 14.0707 28.7119 14.1222C28.6607 14.1738 28.5991 14.2135 28.5312 14.2387C28.4632 14.2639 28.3909 14.274 28.3187 14.2684H5.51481C5.44262 14.274 5.36976 14.2639 5.30183 14.2387C5.2339 14.2135 5.17234 14.1738 5.12113 14.1222C5.06993 14.0707 5.03057 14.0086 5.00549 13.9403C4.9804 13.872 4.96998 13.799 4.97561 13.7264ZM14.3882 18.8564C14.386 18.7846 14.3985 18.7132 14.4248 18.6464C14.4511 18.5797 14.4909 18.5191 14.5414 18.4683C14.5919 18.4175 14.6519 18.3776 14.7183 18.3512C14.7846 18.3247 14.8556 18.3122 14.9269 18.3144H18.8232C18.8954 18.3087 18.9678 18.3189 19.0357 18.3441C19.1036 18.3693 19.1657 18.4091 19.2169 18.4606C19.2681 18.5121 19.3074 18.5741 19.3325 18.6425C19.3576 18.7108 19.3676 18.7838 19.3619 18.8564V38.2488C19.3676 38.3214 19.3576 38.3944 19.3325 38.4627C19.3074 38.531 19.2681 38.5931 19.2169 38.6446C19.1657 38.6961 19.1036 38.7358 19.0357 38.761C18.9678 38.7863 18.8954 38.7964 18.8232 38.7907H14.9269C14.8556 38.7929 14.7846 38.7804 14.7183 38.7539C14.6519 38.7275 14.5919 38.6877 14.5414 38.6369C14.4909 38.5861 14.4511 38.5255 14.4248 38.4588C14.3985 38.392 14.386 38.3205 14.3882 38.2488V18.8564Z" fill="white"/>
<path d="M31.417 13.7264V10.139C31.4114 10.0664 31.4218 9.99339 31.4469 9.92506C31.472 9.85674 31.5113 9.79463 31.5625 9.74312C31.6137 9.69162 31.6753 9.65191 31.7432 9.62668C31.8112 9.60144 31.884 9.59132 31.9562 9.59699H54.7581C54.8303 9.59132 54.9027 9.60144 54.9706 9.62668C55.0386 9.65191 55.1001 9.69162 55.1513 9.74312C55.2025 9.79463 55.2424 9.85674 55.2675 9.92506C55.2926 9.99339 55.3025 10.0664 55.2969 10.139V13.7264C55.3025 13.799 55.2926 13.872 55.2675 13.9403C55.2424 14.0086 55.2025 14.0707 55.1513 14.1222C55.1001 14.1738 55.0386 14.2135 54.9706 14.2387C54.9027 14.2639 54.8303 14.2741 54.7581 14.2684H31.9562C31.884 14.2741 31.8112 14.2639 31.7432 14.2387C31.6753 14.2135 31.6137 14.1738 31.5625 14.1222C31.5113 14.0707 31.472 14.0086 31.4469 13.9403C31.4218 13.872 31.4114 13.799 31.417 13.7264ZM40.8296 18.8564C40.8274 18.7846 40.8399 18.7132 40.8662 18.6464C40.8925 18.5797 40.9324 18.5191 40.9828 18.4683C41.0333 18.4175 41.0933 18.3776 41.1597 18.3512C41.226 18.3247 41.297 18.3122 41.3683 18.3144H45.2646C45.3369 18.3084 45.4095 18.3183 45.4776 18.3434C45.5457 18.3685 45.6075 18.4082 45.6588 18.4598C45.71 18.5114 45.7494 18.5736 45.7744 18.6421C45.7994 18.7106 45.8093 18.7837 45.8033 18.8564V38.2488C45.8093 38.3215 45.7994 38.3946 45.7744 38.4631C45.7494 38.5316 45.71 38.5937 45.6588 38.6453C45.6075 38.6969 45.5457 38.7366 45.4776 38.7618C45.4095 38.7869 45.3369 38.7967 45.2646 38.7907H41.3683C41.297 38.7929 41.226 38.7804 41.1597 38.7539C41.0933 38.7275 41.0333 38.6877 40.9828 38.6369C40.9324 38.5861 40.8925 38.5255 40.8662 38.4588C40.8399 38.392 40.8274 38.3205 40.8296 38.2488V18.8564Z" fill="white"/>
<path d="M58.3679 9.59692H62.4714C62.6293 9.60394 62.7823 9.65427 62.9138 9.74245C63.0453 9.83064 63.1502 9.95334 63.2173 10.0972L74.1217 33.9108C74.246 34.2182 74.246 34.5623 74.1217 34.8697L72.3456 38.8403C72.2961 38.9532 72.2146 39.0489 72.1114 39.1156C72.0083 39.1823 71.8881 39.2171 71.7655 39.2155C71.6373 39.218 71.5107 39.1841 71.4007 39.1178C71.2908 39.0514 71.2016 38.9553 71.1434 38.8403L58.0403 10.1052C57.91 9.8054 58.0344 9.59692 58.3679 9.59692ZM73.5002 24.7765L80.2582 10.0972C80.33 9.94782 80.4419 9.82164 80.5815 9.73318C80.7211 9.64472 80.8825 9.59752 81.0475 9.59692H85.1095C85.4411 9.59692 85.5654 9.80541 85.441 10.0972L76.1113 30.4901C75.987 30.782 75.7798 30.782 75.6555 30.4901L73.5002 25.7771C73.3775 25.4571 73.3769 25.1028 73.4982 24.7824L73.5002 24.7765Z" fill="white"/>
<path d="M97.901 38.2904L111.002 9.55527C111.063 9.44275 111.153 9.34864 111.262 9.28269C111.372 9.21673 111.496 9.18132 111.624 9.18005C111.746 9.18168 111.865 9.21768 111.967 9.28402C112.07 9.35036 112.152 9.44435 112.204 9.55527L125.306 38.2904C125.43 38.5823 125.306 38.7907 124.974 38.7907H120.912C120.747 38.7904 120.585 38.7432 120.446 38.6547C120.306 38.5662 120.194 38.44 120.123 38.2904L118.96 35.7472C118.808 35.4348 118.573 35.1714 118.28 34.9871C117.987 34.8028 117.648 34.7051 117.302 34.705H108.928C108.596 34.705 108.472 34.4965 108.596 34.2047L110.296 30.5339C110.358 30.3866 110.462 30.2608 110.595 30.1719C110.727 30.083 110.882 30.035 111.042 30.0336H115.186C115.891 30.0336 116.14 29.6167 115.85 28.9496L112.119 20.7762C111.953 20.4426 111.788 20.2758 111.622 20.2758C111.456 20.2758 111.29 20.4426 111.125 20.7762L103.082 38.2924C103.015 38.4362 102.909 38.5587 102.778 38.6469C102.646 38.7351 102.493 38.7854 102.335 38.7927H98.2305C97.9009 38.7907 97.7746 38.5823 97.901 38.2904Z" fill="white"/>
<path d="M131.564 33.5336C131.914 33.5291 132.261 33.595 132.585 33.7275C132.908 33.86 133.203 34.0564 133.45 34.3051C133.697 34.5537 133.892 34.8497 134.024 35.1754C134.156 35.5012 134.221 35.8502 134.217 36.2018C134.222 36.5557 134.157 36.907 134.026 37.2354C133.895 37.5639 133.701 37.8629 133.454 38.115C133.207 38.3672 132.913 38.5675 132.588 38.7042C132.264 38.841 131.916 38.9116 131.564 38.9118C131.21 38.9126 130.859 38.843 130.532 38.7071C130.205 38.5712 129.908 38.3716 129.657 38.1198C129.407 37.868 129.208 37.569 129.073 37.2399C128.938 36.9107 128.869 36.5579 128.87 36.2018C128.87 35.848 128.94 35.4977 129.076 35.1714C129.212 34.845 129.411 34.5491 129.662 34.3008C129.913 34.0526 130.21 33.8569 130.537 33.7252C130.863 33.5935 131.212 33.5284 131.564 33.5336Z" fill="white"/>
<path d="M139.233 10.1389C139.227 10.0664 139.237 9.99342 139.262 9.92508C139.287 9.85675 139.326 9.79463 139.377 9.74308C139.429 9.69154 139.49 9.65176 139.558 9.62652C139.626 9.60127 139.698 9.59118 139.77 9.59689H143.668C143.741 9.59122 143.813 9.60134 143.881 9.62658C143.949 9.65181 144.01 9.69152 144.062 9.74302C144.113 9.79453 144.153 9.85663 144.178 9.92496C144.203 9.99329 144.213 10.0663 144.207 10.1389V13.7263C144.213 13.7989 144.203 13.8719 144.178 13.9402C144.153 14.0085 144.113 14.0706 144.062 14.1221C144.01 14.1737 143.949 14.2134 143.881 14.2386C143.813 14.2638 143.741 14.2739 143.668 14.2683H139.77C139.698 14.274 139.626 14.2639 139.558 14.2387C139.49 14.2134 139.429 14.1736 139.377 14.1221C139.326 14.0705 139.287 14.0084 139.262 13.9401C139.237 13.8717 139.227 13.7988 139.233 13.7263V10.1389ZM139.77 18.3123H143.668C143.741 18.3066 143.813 18.3168 143.881 18.342C143.949 18.3673 144.01 18.407 144.062 18.4585C144.113 18.51 144.153 18.572 144.178 18.6404C144.203 18.7087 144.213 18.7817 144.207 18.8543V38.2467C144.213 38.3193 144.203 38.3923 144.178 38.4606C144.153 38.5289 144.113 38.591 144.062 38.6425C144.01 38.694 143.949 38.7338 143.881 38.759C143.813 38.7842 143.741 38.7943 143.668 38.7887H139.77C139.698 38.7944 139.626 38.7842 139.558 38.759C139.49 38.7337 139.429 38.694 139.377 38.6424C139.326 38.5909 139.287 38.5288 139.262 38.4605C139.237 38.3921 139.227 38.3192 139.233 38.2467V18.8543C139.227 18.7816 139.237 18.7085 139.262 18.64C139.287 18.5715 139.327 18.5093 139.378 18.4577C139.429 18.4061 139.491 18.3664 139.559 18.3413C139.627 18.3162 139.7 18.3063 139.772 18.3123H139.77Z" fill="white"/>
</svg>
